<svg width="65" height="60" viewBox="0 0 65 60" fill="none" xmlns="http://www.w3.org/2000/svg">
<path d="M21.6667 7.5C14.1998 7.5 8.125 13.1075 8.125 20V40C8.125 46.8925 14.1998 52.5 21.6667 52.5H43.3333C50.8002 52.5 56.875 46.8925 56.875 40V20C56.875 13.1075 50.8002 7.5 43.3333 7.5H21.6667ZM21.6667 12.5H43.3333C47.8129 12.5 51.4584 15.865 51.4584 20V40C51.4584 44.135 47.8129 47.5 43.3333 47.5H21.6667C17.1871 47.5 13.5417 44.135 13.5417 40V20C13.5417 15.865 17.1871 12.5 21.6667 12.5ZM46.0417 15C44.5459 15 43.3333 16.1193 43.3333 17.5C43.3333 18.8807 44.5459 20 46.0417 20C47.5374 20 48.75 18.8807 48.75 17.5C48.75 16.1193 47.5374 15 46.0417 15ZM32.5 17.5C25.0331 17.5 18.9583 23.1075 18.9583 30C18.9583 36.8925 25.0331 42.5 32.5 42.5C39.9669 42.5 46.0417 36.8925 46.0417 30C46.0417 23.1075 39.9669 17.5 32.5 17.5ZM32.5 22.5C36.9796 22.5 40.625 25.865 40.625 30C40.625 34.135 36.9796 37.5 32.5 37.5C28.0204 37.5 24.375 34.135 24.375 30C24.375 25.865 28.0204 22.5 32.5 22.5Z" fill="white"/>
</svg>
