<svg width="30" height="30" viewBox="0 0 30 30" fill="none" xmlns="http://www.w3.org/2000/svg">
<path d="M14.9999 2.00174C16.698 1.99891 18.3798 2.33146 19.9489 2.98032C21.5181 3.62917 22.9436 4.58155 24.1437 5.78278C29.1858 10.8248 29.1858 19.0283 24.1437 24.0704C21.7013 26.5128 18.4541 27.8586 14.9999 27.8586C11.5458 27.8586 8.29857 26.5138 5.85615 24.0704C0.814085 19.0283 0.814085 10.8248 5.85615 5.78278C7.05627 4.58155 8.48181 3.62917 10.051 2.98032C11.6201 2.33146 13.3019 1.99891 14.9999 2.00174ZM14.9999 25.7897C17.9017 25.7897 20.6286 24.66 22.681 22.6076C24.7334 20.5552 25.862 17.8283 25.862 14.9266C25.862 12.0248 24.7324 9.29795 22.681 7.24554C18.4448 3.0114 11.5531 3.0114 7.31891 7.24554C5.26753 9.29795 4.13788 12.0259 4.13788 14.9266C4.13788 17.8273 5.26753 20.5552 7.31891 22.6076C9.37029 24.66 12.0982 25.7897 14.9999 25.7897Z" fill="white"/>
<path d="M17.3772 9.13756C17.582 9.1371 17.7823 9.19751 17.9527 9.3111C18.1231 9.42469 18.2559 9.58634 18.3343 9.77555C18.4127 9.96475 18.4331 10.173 18.3929 10.3738C18.3527 10.5746 18.2537 10.7589 18.1086 10.9034L14.0855 14.9265L18.1086 18.9496C18.2047 19.0457 18.2808 19.1597 18.3328 19.2852C18.3848 19.4107 18.4116 19.5452 18.4116 19.681C18.4116 19.8168 18.3848 19.9513 18.3328 20.0768C18.2808 20.2023 18.2047 20.3163 18.1086 20.4124C18.0126 20.5084 17.8985 20.5846 17.7731 20.6366C17.6476 20.6886 17.5131 20.7153 17.3772 20.7153C17.2414 20.7153 17.1069 20.6886 16.9814 20.6366C16.8559 20.5846 16.7419 20.5084 16.6459 20.4124L11.8914 15.6579C11.7952 15.5619 11.7189 15.4479 11.6669 15.3224C11.6148 15.1969 11.5881 15.0624 11.5881 14.9265C11.5881 14.7907 11.6148 14.6561 11.6669 14.5306C11.7189 14.4051 11.7952 14.2911 11.8914 14.1951L16.6459 9.44066C16.7418 9.34445 16.8558 9.26815 16.9813 9.21614C17.1068 9.16412 17.2414 9.13742 17.3772 9.13756Z" fill="white"/>
</svg>
