<svg width="30" height="30" viewBox="0 0 30 30" fill="none" xmlns="http://www.w3.org/2000/svg">
<path d="M15.0001 27.9983C13.302 28.0011 11.6202 27.6685 10.0511 27.0197C8.48191 26.3708 7.05637 25.4185 5.85626 24.2172C0.81419 19.1752 0.81419 10.9717 5.85626 5.92963C8.29867 3.48722 11.5459 2.14136 15.0001 2.14136C18.4542 2.14136 21.7014 3.48619 24.1438 5.92963C29.1859 10.9717 29.1859 19.1752 24.1438 24.2172C22.9437 25.4185 21.5182 26.3708 19.949 27.0197C18.3799 27.6685 16.6981 28.0011 15.0001 27.9983ZM15.0001 4.21032C12.0983 4.21032 9.37143 5.33998 7.31902 7.39239C5.2666 9.44481 4.13798 12.1717 4.13798 15.0734C4.13798 17.9752 5.26764 20.702 7.31902 22.7545C11.5552 26.9886 18.4469 26.9886 22.6811 22.7545C24.7325 20.702 25.8621 17.9741 25.8621 15.0734C25.8621 12.1727 24.7325 9.44481 22.6811 7.39239C20.6297 5.33998 17.9018 4.21032 15.0001 4.21032Z" fill="white"/>
<path d="M12.6226 20.8624C12.4179 20.8629 12.2175 20.8025 12.0471 20.6889C11.8767 20.5753 11.7439 20.4137 11.6656 20.2245C11.5872 20.0352 11.5668 19.827 11.607 19.6262C11.6472 19.4254 11.7461 19.2411 11.8913 19.0966L15.9144 15.0735L11.8913 11.0504C11.7952 10.9543 11.719 10.8403 11.6671 10.7148C11.6151 10.5893 11.5883 10.4548 11.5883 10.319C11.5883 10.1832 11.6151 10.0487 11.6671 9.92318C11.719 9.79769 11.7952 9.68366 11.8913 9.58761C11.9873 9.49157 12.1013 9.41538 12.2268 9.3634C12.3523 9.31142 12.4868 9.28467 12.6226 9.28467C12.7585 9.28467 12.893 9.31142 13.0185 9.3634C13.144 9.41538 13.258 9.49157 13.354 9.58761L18.1085 14.3421C18.2047 14.4381 18.2809 14.5521 18.333 14.6776C18.385 14.8031 18.4118 14.9376 18.4118 15.0735C18.4118 15.2093 18.385 15.3439 18.333 15.4694C18.2809 15.5949 18.2047 15.7089 18.1085 15.8049L13.354 20.5593C13.2581 20.6555 13.1441 20.7318 13.0186 20.7839C12.8931 20.8359 12.7585 20.8626 12.6226 20.8624Z" fill="white"/>
</svg>
